<svg viewBox="0 0 18 18" xmlns="http://www.w3.org/2000/svg" xmlns:xlink="http://www.w3.org/1999/xlink" width="18.000000" height="18.000000" fill="none">
	<defs>
		<filter id="pixso_custom_mask_type_alpha">
			<feColorMatrix type="matrix" values="0 0 0 0 1 0 0 0 0 1 0 0 0 0 1 0 0 0 1 0 " />
		</filter>
	</defs>
	<mask id="mask_0" width="13.500000" height="13.500000" x="2.250000" y="2.250000" maskUnits="userSpaceOnUse">
		<g filter="url(#pixso_custom_mask_type_alpha)">
			<g id="mask-2">
				<path id="Vector" d="M10.9448 15.75L10.9448 10.8464L12.6077 10.8464L12.8559 8.98208L10.9448 8.98208L10.9448 7.77469C10.9448 7.22426 11.0942 6.85139 11.8929 6.85139L12.9375 6.85139L12.9375 5.13352C12.7611 5.11133 12.144 5.0625 11.441 5.0625C9.97253 5.0625 8.98019 5.95473 8.98019 7.57494L8.98019 8.98208L7.3125 8.98208L7.3125 10.8464L8.97979 10.8464L8.97655 15.75L3.375 15.75C2.75977 15.75 2.25 15.2402 2.25 14.625L2.25 3.375C2.25 2.75977 2.75977 2.25 3.375 2.25L14.625 2.25C15.2402 2.25 15.75 2.75977 15.75 3.375L15.75 14.625C15.75 15.2402 15.2402 15.75 14.625 15.75L10.9448 15.75Z" fill="rgb(255,255,255)" fill-rule="nonzero" />
			</g>
		</g>
	</mask>
	<rect id="IMAGE" width="18.000000" height="18.000000" x="0.000000" y="0.000000" />
	<g id="facebook-icon" mask="url(#mask_0)">
		<path id="icon" d="M10.9448 15.75L10.9448 10.8464L12.6077 10.8464L12.8559 8.98208L10.9448 8.98208L10.9448 7.77469C10.9448 7.22426 11.0942 6.85139 11.8929 6.85139L12.9375 6.85139L12.9375 5.13352C12.7611 5.11133 12.144 5.0625 11.441 5.0625C9.97253 5.0625 8.98019 5.95473 8.98019 7.57494L8.98019 8.98208L7.3125 8.98208L7.3125 10.8464L8.97979 10.8464L8.97655 15.75L3.375 15.75C2.75977 15.75 2.25 15.2402 2.25 14.625L2.25 3.375C2.25 2.75977 2.75977 2.25 3.375 2.25L14.625 2.25C15.2402 2.25 15.75 2.75977 15.75 3.375L15.75 14.625C15.75 15.2402 15.2402 15.75 14.625 15.75L10.9448 15.75Z" fill="rgb(255,255,255)" fill-rule="nonzero" />
	</g>
</svg>
