<svg aria-hidden="true" style="position: absolute; width: 0; height: 0; overflow: hidden;" version="1.1" xmlns="http://www.w3.org/2000/svg" xmlns:xlink="http://www.w3.org/1999/xlink">
<defs>
<symbol id="icon-arrow-right" viewBox="0 0 44 32">
<path d="M25.923 0.414c9.302 5.406 17.725 13.898 17.947 14.284 0.443 0.392 0.443 0.775 0.443 1.358 0 0.383-0.225 0.965-0.443 1.348-0.222 0.386-8.862 8.878-17.947 14.284-0.668 0.386-1.551 0.386-2.434 0.196-0.665-0.383-1.333-0.965-1.333-1.741v-7.144s-19.276-0.962-20.165-1.545c-1.108-1.158-1.991-3.469-1.991-5.596s0.883-4.248 1.991-5.023c0.889-0.386 20.165-1.735 20.165-1.735v-7.144c0-0.775 0.443-1.348 1.333-1.741 0.658-0.386 1.551-0.19 2.431 0.196z"></path>
</symbol>
<symbol id="_icon-play" viewBox="0 0 30 32">
<path d="M29.043 14.306l-22.596-14.007c-0.62-0.378-1.434-0.404-2.067-0.039-0.646 0.365-1.046 1.055-1.046 1.798v27.884c0 0.743 0.401 1.433 1.034 1.798 0.31 0.169 0.646 0.261 0.995 0.261 0.375 0 0.736-0.104 1.059-0.3l22.596-13.89c0.607-0.365 0.982-1.042 0.982-1.746 0.026-0.717-0.349-1.394-0.956-1.759z"></path>
</symbol>
<symbol id="icon-subscribe" viewBox="0 0 32 32">
<path fill="#fff" style="fill: var(--color1, #fff)" d="M26.797 2.604c-0.083-0.065-0.188-0.104-0.303-0.104-0.086 0-0.168 0.022-0.238 0.061l0.003-0.001-24 13c-0.155 0.085-0.258 0.247-0.258 0.433 0 0.017 0.001 0.033 0.002 0.049l-0-0.002c0.018 0.199 0.152 0.363 0.334 0.424l0.003 0.001 6.823 2.227-0.661 6.754c-0.002 0.015-0.003 0.033-0.003 0.051 0 0.201 0.121 0.374 0.294 0.45l0.003 0.001c0.058 0.026 0.127 0.042 0.198 0.042 0.147 0 0.279-0.064 0.369-0.166l0-0 4.305-4.862 6.477 6.387c0.090 0.088 0.213 0.142 0.349 0.142 0.048 0 0.094-0.007 0.138-0.019l-0.003 0.001c0.171-0.049 0.302-0.183 0.345-0.353l0.001-0.003 5.999-24c0.009-0.036 0.015-0.078 0.015-0.12 0-0.159-0.075-0.3-0.191-0.391l-0.001-0.001zM10.167 18.601l9.755-7.89-6.648 9.206-3.639 4.107 0.532-5.425z"></path>
</symbol>
<symbol id="_icon-facebook" viewBox="0 0 32 32">
<path d="M20.61 32v-11.623h3.942l0.589-4.419h-4.53v-2.862c0-1.305 0.354-2.189 2.248-2.189h2.476v-4.072c-0.418-0.053-1.881-0.168-3.547-0.168-3.481 0-5.833 2.115-5.833 5.955v3.335h-3.953v4.419h3.952l-0.008 11.623h-13.278c-1.458 0-2.667-1.208-2.667-2.667v-26.667c0-1.458 1.208-2.667 2.667-2.667h26.667c1.458 0 2.667 1.208 2.667 2.667v26.667c0 1.458-1.208 2.667-2.667 2.667h-8.723z"></path>
</symbol>
<symbol id="_icon-instagram" viewBox="0 0 32 32">
<path d="M0 9.234c0-5.1 4.134-9.234 9.234-9.234h13.531c5.1 0 9.234 4.134 9.234 9.234v13.531c0 5.1-4.134 9.234-9.234 9.234h-13.531c-5.1 0-9.234-4.134-9.234-9.234v-13.531zM2.897 9.51v12.981c0 3.658 2.961 6.613 6.613 6.613h12.981c3.658 0 6.613-2.961 6.613-6.613v-12.981c0-3.658-2.961-6.613-6.613-6.613h-12.981c-3.658 0-6.613 2.961-6.613 6.613zM16 24.138c-4.494 0-8.138-3.644-8.138-8.138s3.643-8.138 8.138-8.138c4.494 0 8.138 3.643 8.138 8.138s-3.644 8.138-8.138 8.138zM16 21.241c2.895 0 5.241-2.347 5.241-5.241s-2.347-5.241-5.241-5.241c-2.895 0-5.241 2.347-5.241 5.241s2.347 5.241 5.241 5.241zM24.414 9.379c-1.066 0-1.931-0.865-1.931-1.931s0.865-1.931 1.931-1.931c1.066 0 1.931 0.865 1.931 1.931s-0.864 1.931-1.931 1.931z"></path>
</symbol>
<symbol id="_icon-pinterest" viewBox="0 0 32 32">
<path d="M16 0c-8.839 0-16 7.161-16 16 0 6.781 4.219 12.568 10.172 14.901-0.141-1.266-0.271-3.208 0.052-4.594 0.292-1.245 1.875-7.953 1.875-7.953s-0.474-0.958-0.474-2.375c0-2.224 1.286-3.885 2.891-3.885 1.365 0 2.026 1.026 2.026 2.255 0 1.375-0.875 3.427-1.328 5.328-0.375 1.594 0.802 2.891 2.37 2.891 2.844 0 5.031-3 5.031-7.328 0-3.828-2.75-6.505-6.682-6.505-4.552 0-7.224 3.411-7.224 6.943 0 1.375 0.531 2.849 1.193 3.651 0.13 0.156 0.146 0.297 0.109 0.458-0.125 0.505-0.391 1.594-0.443 1.812-0.073 0.297-0.234 0.359-0.536 0.214-2-0.927-3.25-3.849-3.25-6.198 0-5.047 3.667-9.682 10.573-9.682 5.552 0 9.864 3.953 9.864 9.245 0 5.51-3.479 9.948-8.302 9.948-1.62 0-3.146-0.838-3.667-1.833 0 0-0.802 3.052-1 3.802-0.359 1.391-1.333 3.13-1.99 4.193 1.5 0.464 3.089 0.714 4.74 0.714 8.839 0 16-7.161 16-16s-7.161-16-16-16z"></path>
</symbol>
<symbol id="_icon-twitter" viewBox="0 0 39 32">
<path d="M39.369 3.794c-1.449 0.64-3.005 1.076-4.639 1.268 1.667-0.999 2.948-2.582 3.55-4.467-1.557 0.924-3.287 1.596-5.126 1.962-1.475-1.57-3.576-2.557-5.896-2.557-4.46 0-8.080 3.62-8.080 8.080 0 0.635 0.071 1.25 0.212 1.839-6.714-0.333-12.667-3.55-16.646-8.44-0.699 1.193-1.096 2.584-1.096 4.063 0 2.8 1.422 5.274 3.594 6.722-1.325-0.046-2.569-0.404-3.658-1.014 0 0.039 0 0.071 0 0.103 0 3.916 2.78 7.183 6.478 7.92-0.679 0.185-1.391 0.289-2.128 0.289-0.518 0-1.032-0.051-1.519-0.148 1.025 3.21 4.012 5.543 7.542 5.613-2.762 2.165-6.248 3.453-10.028 3.453-0.655 0-1.294-0.038-1.929-0.115 3.576 2.295 7.818 3.633 12.38 3.633 14.858 0 22.985-12.309 22.985-22.985 0-0.346-0.013-0.699-0.026-1.045 1.576-1.14 2.948-2.562 4.030-4.176z"></path>
</symbol>
<symbol id="_icon-youtube" viewBox="0 0 42 32">
<path d="M20.8 0c6.026 0 11.351 0.626 14.6 1.101 2.688 0.394 4.856 2.418 5.35 5.099 0.424 2.288 0.85 5.632 0.85 9.8s-0.432 7.512-0.85 9.8c-0.494 2.682-2.662 4.712-5.35 5.099-3.262 0.475-8.606 1.101-14.6 1.101s-11.338-0.626-14.6-1.101c-2.688-0.387-4.856-2.418-5.35-5.099-0.418-2.282-0.85-5.619-0.85-9.8s0.432-7.518 0.85-9.8c0.494-2.682 2.662-4.706 5.35-5.099 3.25-0.475 8.574-1.101 14.6-1.101zM16 6.85v18.301l2.4-1.35 11.2-6.4 2.4-1.4-2.4-1.4-11.2-6.4-2.4-1.35z"></path>
</symbol>
<symbol id="_icon-cart" viewBox="0 0 38 32">
<path d="M1.6 0c-0.881 0-1.6 0.719-1.6 1.6s0.719 1.6 1.6 1.6h3.55l4.2 16.8c0.356 1.425 1.631 2.4 3.1 2.4h18.35c1.444 0 2.669-0.956 3.050-2.35l4.15-15.25h-26.8l0.8 3.2h21.85l-3.050 11.2h-18.35l-4.2-16.8c-0.356-1.425-1.631-2.4-3.1-2.4h-3.55zM28.8 22.4c-2.631 0-4.8 2.169-4.8 4.8s2.169 4.8 4.8 4.8c2.631 0 4.8-2.169 4.8-4.8s-2.169-4.8-4.8-4.8zM14.4 22.4c-2.631 0-4.8 2.169-4.8 4.8s2.169 4.8 4.8 4.8c2.631 0 4.8-2.169 4.8-4.8s-2.169-4.8-4.8-4.8zM14.4 25.6c0.9 0 1.6 0.7 1.6 1.6s-0.7 1.6-1.6 1.6c-0.9 0-1.6-0.7-1.6-1.6s0.7-1.6 1.6-1.6zM28.8 25.6c0.9 0 1.6 0.7 1.6 1.6s-0.7 1.6-1.6 1.6c-0.9 0-1.6-0.7-1.6-1.6s0.7-1.6 1.6-1.6z"></path>
</symbol>
</defs>
</svg>

